<svg xmlns="http://www.w3.org/2000/svg" xmlns:xlink="http://www.w3.org/1999/xlink" version="1.1" width="256" height="256" viewBox="0 0 256 256" xml:space="preserve">

<defs>
</defs>
<g style="stroke: none; stroke-width: 0; stroke-dasharray: none; stroke-linecap: butt; stroke-linejoin: miter; stroke-miterlimit: 10; fill: none; fill-rule: nonzero; opacity: 1;" transform="translate(1.4065934065934016 1.4065934065934016) scale(2.81 2.81)" >
	<path d="M 65.873 47.256 c 12.753 0 23.128 -10.376 23.128 -23.129 S 78.626 0.999 65.873 0.999 S 42.745 11.374 42.745 24.151 L 43 45.024 l 0.255 20.849 c 0 10.547 -8.581 19.128 -19.128 19.128 S 4.999 76.42 4.999 65.873 c 0 -10.548 8.581 -19.129 19.104 -19.129 l 7.328 0.09 c 1.103 0.02 2.011 -0.871 2.024 -1.975 c 0.013 -1.104 -0.871 -2.011 -1.976 -2.024 l -7.352 -0.09 c -12.753 0 -23.128 10.375 -23.128 23.128 s 10.375 23.128 23.128 23.128 s 23.129 -10.375 23.128 -23.152 L 47 44.976 l -0.256 -20.849 c 0 -10.547 8.581 -19.128 19.129 -19.128 c 10.547 0 19.128 8.581 19.128 19.128 S 76.42 43.255 65.897 43.255 l -9.207 -0.113 c -0.008 0 -0.017 0 -0.025 0 c -1.093 0 -1.985 0.879 -1.999 1.976 c -0.014 1.104 0.871 2.011 1.976 2.024 L 65.873 47.256 z" style="stroke: none; stroke-width: 1; stroke-dasharray: none; stroke-linecap: butt; stroke-linejoin: miter; stroke-miterlimit: 10; fill: rgb(0,0,0); fill-rule: nonzero; opacity: 1;" transform=" matrix(1 0 0 1 0 0) " stroke-linecap="round" />
	<path d="M 17.033 34.066 c 9.392 0 17.033 -7.641 17.033 -17.033 S 26.425 0 17.033 0 c -1.104 0 -2 0.896 -2 2 s 0.896 2 2 2 c 7.186 0 13.033 5.847 13.033 13.033 c 0 7.186 -5.847 13.033 -13.033 13.033 C 9.847 30.066 4 24.219 4 17.033 c 0 -1.104 -0.896 -2 -2 -2 s -2 0.896 -2 2 C 0 26.425 7.641 34.066 17.033 34.066 z" style="stroke: none; stroke-width: 1; stroke-dasharray: none; stroke-linecap: butt; stroke-linejoin: miter; stroke-miterlimit: 10; fill: rgb(0,0,0); fill-rule: nonzero; opacity: 1;" transform=" matrix(1 0 0 1 0 0) " stroke-linecap="round" />
	<path d="M 72.967 55.934 c -9.393 0 -17.033 7.641 -17.033 17.033 S 63.574 90 72.967 90 c 1.104 0 2 -0.896 2 -2 s -0.896 -2 -2 -2 c -7.187 0 -13.033 -5.847 -13.033 -13.033 s 5.847 -13.033 13.033 -13.033 S 86 65.78 86 72.967 c 0 1.104 0.896 2 2 2 s 2 -0.896 2 -2 C 90 63.574 82.359 55.934 72.967 55.934 z" style="stroke: none; stroke-width: 1; stroke-dasharray: none; stroke-linecap: butt; stroke-linejoin: miter; stroke-miterlimit: 10; fill: rgb(0,0,0); fill-rule: nonzero; opacity: 1;" transform=" matrix(1 0 0 1 0 0) " stroke-linecap="round" />
</g>
</svg>